<?xml version="1.0" encoding="utf-8"?>
<!-- Generator: Adobe Illustrator 24.2.0, SVG Export Plug-In . SVG Version: 6.00 Build 0)  -->
<svg version="1.1" id="Layer_1" xmlns="http://www.w3.org/2000/svg" xmlns:xlink="http://www.w3.org/1999/xlink" x="0px" y="0px"
	 viewBox="0 0 1920 1080" style="enable-background:new 0 0 1920 1080;" xml:space="preserve">
<style type="text/css">
	.st0{font-family:'Hasteristico-Bold';}
	.st1{font-size:211.7057px;}
	.st2{letter-spacing:27.2;}
	.st3{fill:#701425;}
</style>
<path d="M211.7-203.1c0,6.8-1.4,13-4.1,18.5c-2.8,5.6-6.4,10.4-10.9,14.4c-4.5,4-9.7,7.1-15.5,9.3c-5.8,2.2-11.8,3.3-18.1,3.3
	c-5.1,0-10.4-0.7-15.8-2c-5.4-1.3-10.5-3.7-15.1-7.1c-4.7-3.4-8.6-7.9-12-13.5c-3.3-5.6-5.3-12.8-5.9-21.4h14.4
	c1,7.1,2.9,12.6,5.6,16.7c2.7,4.1,5.7,7.2,9,9.2c3.3,2,6.8,3.4,10.3,3.9c3.6,0.6,6.6,0.8,9.3,0.8c4.4,0,8.6-0.7,12.6-2.2
	c4.1-1.5,7.7-3.6,10.9-6.4c3.2-2.8,5.8-6,7.7-9.8s2.9-8.1,2.9-12.9c0-6.1-1.2-11.1-3.7-15c-2.5-3.9-5.5-7.1-9.2-9.4
	c-3.6-2.3-7.6-4.1-11.8-5.4c-4.2-1.3-8-2.3-11.3-3.2c-3.6-0.8-7.9-2-12.7-3.6c-4.9-1.6-9.6-3.8-14.1-6.8c-4.5-3-8.3-6.9-11.4-12
	c-3.1-5-4.8-11.5-4.9-19.4c0-6.8,1.2-12.8,3.7-18c2.5-5.2,5.8-9.6,10-13.2c4.2-3.6,9.1-6.3,14.6-8.2c5.5-1.8,11.3-2.8,17.4-2.8
	c4.9,0,10,1,15.1,3c5.2,2,9.8,5.2,14.1,9.6c4.2,4.4,7.7,10.3,10.3,17.5c2.7,7.2,4,16.1,4,26.7h-14.6c0-5.8-0.5-11.3-1.5-16.5
	c-1-5.2-2.7-9.8-5-13.9c-2.3-4-5.4-7.2-9.2-9.5c-3.8-2.3-8.4-3.5-13.7-3.5c-4.4,0-8.4,0.7-12.1,2c-3.7,1.3-7,3.2-9.8,5.7
	c-2.8,2.5-5,5.5-6.6,9c-1.6,3.5-2.4,7.4-2.4,11.6c0,5.1,1.1,9.3,3.3,12.7s5,6.2,8.6,8.5c3.6,2.3,7.6,4.1,12.2,5.5
	c4.6,1.4,9.3,2.8,14.1,4l-0.2-0.2c2,0.4,5.3,1.3,9.9,2.6c4.6,1.3,9.2,3.6,13.8,6.7c4.6,3.1,8.8,7.4,12.3,12.9
	C209.9-219.2,211.7-212,211.7-203.1z"/>
<text transform="matrix(1.0293 0 0 1 -830.8928 -711.6243)" class="st0 st1 st2">MARQUESA</text>
<text transform="matrix(1.0293 0 0 1 227.4294 672.0456)" class="st0 st1 st2">MARQUESA</text>
<text transform="matrix(1.0293 0 0 1 -894.4222 -426.9184)" class="st1 st2" style="font-family:'CaviarDreams';">MARQUESA</text>
<path d="M617.1-599.1l55.2,92.7l55-92.7h20.1v165.4h-22v-119.5l-53.1,89.3L619-553.2v119.5h-22v-165.4H617.1z"/>
<path d="M876.1-599.1L938-433.7h-23.4l-21.9-58.5h-45.1l-21.8,58.5h-23.5l61.9-165.4H876.1z M884.7-513.6l-14.6-38.8l-14.5,38.8
	H884.7z"/>
<path d="M1029.7-486.7h-20.1v52.9h-22v-165.4h48.3c13.7,1.8,25.3,7.3,34.7,16.4c11.3,11,16.9,24.3,16.9,39.7
	c0,15.6-5.6,28.9-16.9,39.9c-7.8,7.6-13.8,11.9-17.9,12.8l37.8,56.5h-26.7L1029.7-486.7z M1009.6-577.6v69.5h20.1
	c9.8,0,18.2-3.4,25.2-10.2c7-6.8,10.5-15,10.5-24.7c0-9.6-3.5-17.7-10.5-24.5c-7-6.8-15.4-10.1-25.2-10.1H1009.6z"/>
<path d="M1261.4-439.4c1.6,1,3.3,2.1,5.1,3.3c5,2.5,8.3,4.1,10.1,4.7c0.8,0.2,1.5,0.3,2.2,0.3c1.2,0,2.4-0.3,3.6-1
	c1.8-1,3-2.5,3.6-4.5c0.2-0.6,0.5-3.2,0.7-7.7h22.2c-0.5,6.8-1.1,11.2-1.7,13.4c-2.3,7.6-7,13.4-14.2,17.3
	c-4.5,2.5-9.3,3.8-14.3,3.8c-2.8,0-5.5-0.4-8.3-1.1c-4.5-1.2-10.6-4.1-18.2-8.9c-6.1-3.1-10.3-5-12.7-5.7c-1.3-0.3-2.6-0.5-3.8-0.5
	c-2.1,0-4.2,0.6-6.2,1.7c-3.3,1.8-5.4,4.5-6.4,8.1c-0.1,0.3-0.4,2.6-0.7,6.8h-22.2c0.6-6.5,1.1-10.8,1.7-12.8
	c1.2-4.2,3-7.9,5.5-11.2c-16.7-3.1-31.5-10.9-44.3-23.3c-17-16.5-25.5-36.5-25.5-59.9c0-23.4,8.5-43.3,25.5-59.9
	c17-16.5,37.6-24.8,61.6-24.8s44.6,8.3,61.6,24.8c17,16.5,25.5,36.5,25.5,59.9c0,23.4-8.5,43.3-25.5,59.9
	C1278.9-449.3,1270.5-443.5,1261.4-439.4z M1225-579.7c-17.9,0-33.2,6.2-45.9,18.5c-12.7,12.3-19,27.2-19,44.6
	c0,17.4,6.3,32.3,19,44.7c12.7,12.3,28,18.5,45.9,18.5c17.9,0,33.2-6.2,45.9-18.5c12.7-12.3,19-27.2,19-44.7
	c0-17.4-6.3-32.3-19-44.6C1258.2-573.5,1242.9-579.7,1225-579.7z"/>
<path d="M1463.4-599.1h22.1v116.5c-1.9,13.3-7.6,24.5-16.9,33.7c-11.3,11-25,16.5-41,16.5s-29.6-5.5-40.9-16.5
	c-11.3-11-17-24.2-17-39.7v-110.5h22.1v110.5c0,9.5,3.5,17.7,10.5,24.4c7,6.8,15.4,10.2,25.3,10.2c9.9,0,18.4-3.4,25.3-10.1
	c7-6.8,10.4-14.9,10.4-24.5V-599.1z"/>
<path d="M1637.5-599.1v21.4h-69.7v50.5h69.7v21.4h-69.7v50.5h69.7v21.5h-91.7v-165.4H1637.5z"/>
<path d="M-353.1-234.8c-17.9-5.8-32.5-14.2-43.6-25c-11.1-10.8-16.7-24.2-16.7-40.2c0-15.7,5.8-29.2,17.3-40.4
	c11.6-11.3,25.6-16.9,42-16.9c16.2,0,30.2,5.6,41.8,16.8c6.5,6.1,12,15.9,16.5,29.4l-29.7,11.4c-3.6-9.4-6.9-15.6-9.8-18.4
	c-5.2-4.9-11.4-7.4-18.7-7.4c-7.4,0-13.7,2.5-18.8,7.5c-5.2,5-7.8,11-7.8,18.2c0,7.2,2.6,13.3,7.8,18.3c5.8,5.5,13.8,10.6,24.1,15.2
	c19.8,6.3,36.7,16.1,50.5,29.5c15.5,14.9,23.3,32.9,23.3,54.1c0,21.2-7.7,39.3-23.2,54.3c-15.5,15-34,22.5-55.8,22.5
	c-21.8,0-40.5-7.5-55.9-22.6c-12.3-12-20.2-28.5-23.4-49.7l31.8-11.2c2,18.1,6.9,31,14.7,38.6c9.1,8.8,20,13.2,32.8,13.2
	c12.8,0,23.7-4.4,32.8-13.2c9.1-8.8,13.6-19.5,13.6-32c0-12.4-4.5-23-13.6-31.8C-330-223.1-340.6-229.8-353.1-234.8z"/>
<path d="M1903.8-599.1l61.9,165.4h-23.4l-21.9-58.5h-45.1l-21.8,58.5H1830l61.9-165.4H1903.8z M1912.4-513.6l-14.6-38.8l-14.5,38.8
	H1912.4z"/>
<g>
	<path d="M373.7,338.1l-0.4-129.4c-10.9,21.5-21.8,43.1-32.7,64.9s-21.7,43.3-32.5,64.5h-8.9l-65.8-129.6v129.6H219V181.5h16.8
		l68,134c11.2-22.3,22.5-44.7,33.9-67.1c11.4-22.4,22.7-44.7,33.9-66.9h16.6v156.7H373.7z"/>
	<path d="M562.2,338.1l-9.2-21.2c-17.4-0.1-34.4-0.2-50.9-0.3c-16.5-0.1-33.4-0.1-50.9-0.1c-1.6,3.4-3.3,7-5,10.9
		c-1.7,3.9-3.3,7.4-4.6,10.7h-15.5l69.1-156.7h13.3l69.1,156.7H562.2z M501.8,201.4c-3.8,8.8-7.5,17.3-11.2,25.6
		c-3.7,8.3-7.4,16.6-11,24.9c-3.6,8.3-7.3,16.6-10.9,25.1c-3.6,8.5-7.4,17.1-11.3,26c7.7,0,15.2,0,22.6,0.1
		c7.3,0.1,14.6,0.1,21.8,0.2c7.2,0.1,14.5,0.1,21.9,0.2c7.4,0.1,15.1,0.1,23.1,0.1L501.8,201.4z"/>
	<path d="M719.9,232.3c0,5.1-0.9,10.5-2.7,16.3c-1.8,5.8-4.7,11.2-8.6,16.1c-3.9,4.9-9,9-15.3,12.3c-6.2,3.2-13.8,4.9-22.7,4.9
		l-20,0.2c5.2,4.5,10.7,9.2,16.5,14c5.7,4.8,11.5,9.6,17.2,14.5c5.7,4.9,11.4,9.7,17,14.4c5.6,4.7,10.8,9.1,15.6,13.2h-20.3
		l-68.4-56.7v56.7h-14.4v-68.6v-0.8v-87.2h39c6.1,0,11.4,0.1,15.9,0.4c4.5,0.3,8.4,0.7,11.7,1.3c3.3,0.6,6.1,1.3,8.5,2.1
		s4.6,1.8,6.6,2.8c3.5,1.8,6.7,4.2,9.6,7.2c2.9,3,5.4,6.3,7.5,10.1c2.1,3.7,3.8,7.8,5.1,12.3c1.3,4.4,2,9,2.2,13.7V232.3z
		 M628.2,268.7h34.4c6.7,0,12.4-0.5,17.1-1.4c4.7-0.9,9.3-3.2,13.8-6.9c4.4-4.5,7.4-9.1,9.2-13.8c1.7-4.7,2.6-9.7,2.6-15.2
		c0-5.8-1.5-11.6-4.4-17.4c-2.9-5.8-6.9-10.4-12-13.8c-4.2-2.4-9.2-3.9-14.9-4.4c-5.7-0.6-12.8-0.8-21.2-0.8h-24.6V268.7z"/>
	<path d="M889.2,325c-2,1.4-4.6,3-7.7,4.8c-3.1,1.8-6.8,3.5-11,5.1c-4.2,1.6-8.9,3-14.1,4.1c-5.2,1.1-10.8,1.7-16.9,1.7
		c-12.8,0-24.4-2.2-34.8-6.6c-10.4-4.4-19.2-10.3-26.5-17.7c-7.3-7.4-12.9-16-16.9-25.8c-4-9.8-6-20.1-6-30.8
		c0-11.7,2.2-22.5,6.5-32.4c4.4-9.9,10.4-18.4,18-25.6c7.6-7.2,16.5-12.8,26.6-16.8c10.1-4,21-6,32.6-6c11.5,0,22.3,2,32.5,6
		c10.2,4,19,9.6,26.6,16.8c7.6,7.2,13.5,15.7,17.9,25.6c4.4,9.9,6.5,20.7,6.5,32.4c0,8.5-1.1,16.1-3.2,22.8
		c-2.1,6.7-4.6,12.5-7.5,17.5c-2.9,4.9-6,9.2-9.2,12.7c-3.2,3.5-6,6.4-8.3,8.5L889.2,325z M776.4,289v-0.2
		c4.4,8.6,9.4,15.5,15.3,20.5c5.8,5.1,11.7,9,17.7,11.6c6,2.7,11.7,4.4,17.1,5.2c5.4,0.8,9.9,1.2,13.4,1.2c4.4,0,8.6-0.4,12.6-1.2
		c4.1-0.8,7.8-1.8,11.2-3.1c3.4-1.3,6.5-2.7,9.3-4.2c2.8-1.6,5.1-3,7-4.4c0.3-0.1,0.9-0.5,2-1.1c1-0.6,1.7-1.1,2.2-1.7
		c8-6.9,14-14.8,18-23.6c4-8.8,6-18.2,6-28.3c0-9.7-1.8-18.7-5.4-26.9c-3.6-8.2-8.6-15.3-14.8-21.4c-6.2-6.1-13.5-10.8-21.9-14.2
		c-8.4-3.4-17.3-5.1-26.7-5.1c-9.6,0-18.6,1.7-27,5.1c-8.4,3.4-15.8,8.1-22,14.2c-6.2,6.1-11.2,13.2-14.7,21.4
		c-3.6,8.2-5.3,17.1-5.3,26.9c0,5.9,0.4,10.7,1.3,14.4c0.9,3.7,1.8,6.7,2.8,9.1l-0.2-0.2L776.4,289z M845,329.4
		c-1.7,5.5-2.1,9.1-1,10.7c1.1,1.6,2.9,2.3,5.3,1.9c2.5-0.4,5.2-1.1,8.3-2.3c3.1-1.2,5.7-1.9,8.1-2c9-0.1,19.4,3.5,31.2,11v15.9
		c-7-4.5-12.8-7.8-17.5-9.8c-4.7-2-9-3.1-12.7-3.3c-4.4,0.4-9,1.1-13.9,1.9c-4.9,0.8-9.3,1-13.2,0.3c-3.9-0.6-6.7-2.3-8.6-5.1
		c-1.9-2.8-2-7.5-0.4-14.3L845,329.4z"/>
	<path d="M1064.7,281.8c0,3.5-0.1,7.4-0.3,11.7c-0.2,4.3-1,8.6-2.3,13c-1.3,4.4-3.3,8.7-6.1,12.9c-2.8,4.2-6.6,8-11.5,11.4
		c-4.5,2.8-9.4,5.2-14.6,7c-5.2,1.8-10.7,2.8-16.3,2.8c-5.7,0-11-0.9-16.1-2.8c-5.1-1.8-9.9-4.2-14.4-7c-5.1-3.4-9-7.2-11.7-11.4
		c-2.7-4.2-4.7-8.5-6-12.9c-1.3-4.4-2.1-8.7-2.3-13c-0.2-4.3-0.3-8.2-0.3-11.7V181.5h14.4v100.3c0,3.5,0,6.7,0.1,9.6
		c0.1,2.9,0.4,5.6,1,8.3c0.6,2.6,1.5,5.2,2.6,7.7c1.2,2.5,2.8,5.2,5,7.8c2.9,3.8,6.9,6.8,12.1,8.9c5.2,2.1,10.5,3.2,16,3.2
		c5.2,0,10.4-1.1,15.5-3.2c5.1-2.1,9.1-5.1,12-8.9c2.2-2.7,3.8-5.3,5-7.8c1.2-2.5,2-5.1,2.6-7.7c0.6-2.6,0.9-5.4,1-8.3
		c0.1-2.9,0.1-6.1,0.1-9.6V181.5h14.6V281.8z"/>
	<path d="M1105.8,338.1V181.5h92.2V195h-77.6v57.6h39.9v13.3h-39.9v58.6h77.6v13.5H1105.8z"/>
	<path d="M1517.1,338.1l-9.2-21.2c-17.4-0.1-34.4-0.2-50.9-0.3c-16.5-0.1-33.4-0.1-50.9-0.1c-1.6,3.4-3.3,7-5,10.9
		c-1.7,3.9-3.3,7.4-4.6,10.7h-15.5l69.1-156.7h13.3l69.1,156.7H1517.1z M1456.7,201.4c-3.8,8.8-7.5,17.3-11.2,25.6
		c-3.7,8.3-7.4,16.6-11,24.9c-3.6,8.3-7.3,16.6-10.9,25.1c-3.6,8.5-7.4,17.1-11.3,26c7.7,0,15.2,0,22.6,0.1
		c7.3,0.1,14.6,0.1,21.8,0.2c7.2,0.1,14.5,0.1,21.9,0.2c7.4,0.1,15.1,0.1,23.1,0.1L1456.7,201.4z"/>
	<path d="M1335.2,281.8c-11.3-10.9-25.3-19.1-41.7-24.3c-9.9-4.5-17.7-9.5-23.2-14.8c-5.8-5.7-8.7-12.3-8.7-20.3
		c0-8.1,2.8-14.7,8.7-20.4c5.9-5.6,12.7-8.4,21-8.4c8.3,0,15.1,2.7,21,8.3c3.2,3.2,5.6,6.7,7,10.4l0.7,1.9l14-5.4l-0.6-1.8
		c-1.9-5.7-5.3-11-10.2-15.5c-8.8-8.5-19.6-12.8-31.9-12.8c-12.4,0-23.2,4.3-31.9,12.9c-8.8,8.5-13.2,18.9-13.2,30.8
		c0,12.1,4.4,22.6,13.2,31.1c8.6,8.3,20.4,15,35,19.7c11.9,4.7,22,11.2,30.2,19.1c9.1,8.9,13.8,19.7,13.8,32.2
		c0,12.6-4.6,23.4-13.8,32.3c-9.1,8.9-20.4,13.4-33.3,13.4c-12.9,0-24-4.5-33.2-13.4c-7.8-7.6-12.4-16.6-13.5-26.8l-0.3-2.5
		l-14.7,5.2l0.3,1.6c1.9,12.5,7.8,23.6,17.5,33c12.1,11.9,26.9,17.9,44,17.9c17.1,0,31.9-6,44-17.7c12.1-11.8,18.3-26.2,18.3-42.9
		C1353.5,307.9,1347.3,293.5,1335.2,281.8z"/>
	<circle class="st3" cx="1291.6" cy="323.1" r="23.6"/>
</g>
<circle class="st3" cx="1088.3" cy="-272.7" r="23.6"/>
</svg>
