<?xml version="1.0" encoding="utf-8"?>
<!-- Generator: Adobe Illustrator 24.2.0, SVG Export Plug-In . SVG Version: 6.00 Build 0)  -->
<svg version="1.1" id="Layer_1" xmlns="http://www.w3.org/2000/svg" xmlns:xlink="http://www.w3.org/1999/xlink" x="0px" y="0px"
	 viewBox="0 0 1313.5 235.5" style="enable-background:new 0 0 1313.5 235.5;" xml:space="preserve">
<style type="text/css">
	.st0{fill:#FFFFFF;}
	.st1{fill:#701425;}
</style>
<g>
	<path class="st0" d="M154.7,169.2l-0.4-129.4c-10.9,21.5-21.8,43.1-32.7,64.9S99.9,148,89.1,169.2h-8.9L14.4,39.6v129.6H0V12.6
		h16.8l68,134c11.2-22.3,22.5-44.7,33.9-67.1s22.7-44.7,33.9-66.9h16.6v156.7h-14.5V169.2z"/>
	<path class="st0" d="M343.2,169.2L334,148c-17.4-0.1-34.4-0.2-50.9-0.3c-16.5-0.1-33.4-0.1-50.9-0.1c-1.6,3.4-3.3,7-5,10.9
		s-3.3,7.4-4.6,10.7h-15.5l69.1-156.7h13.3l69.1,156.7H343.2z M282.8,32.5c-3.8,8.8-7.5,17.3-11.2,25.6s-7.4,16.6-11,24.9
		s-7.3,16.6-10.9,25.1s-7.4,17.1-11.3,26c7.7,0,15.2,0,22.6,0.1c7.3,0.1,14.6,0.1,21.8,0.2c7.2,0.1,14.5,0.1,21.9,0.2
		s15.1,0.1,23.1,0.1L282.8,32.5z"/>
	<path class="st0" d="M500.9,63.4c0,5.1-0.9,10.5-2.7,16.3s-4.7,11.2-8.6,16.1c-3.9,4.9-9,9-15.3,12.3c-6.2,3.2-13.8,4.9-22.7,4.9
		l-20,0.2c5.2,4.5,10.7,9.2,16.5,14c5.7,4.8,11.5,9.6,17.2,14.5s11.4,9.7,17,14.4c5.6,4.7,10.8,9.1,15.6,13.2h-20.3l-68.4-56.7v56.7
		h-14.4v-68.6v-0.8V12.7h39c6.1,0,11.4,0.1,15.9,0.4c4.5,0.3,8.4,0.7,11.7,1.3s6.1,1.3,8.5,2.1s4.6,1.8,6.6,2.8
		c3.5,1.8,6.7,4.2,9.6,7.2c2.9,3,5.4,6.3,7.5,10.1c2.1,3.7,3.8,7.8,5.1,12.3c1.3,4.4,2,9,2.2,13.7L500.9,63.4L500.9,63.4z
		 M409.2,99.8h34.4c6.7,0,12.4-0.5,17.1-1.4c4.7-0.9,9.3-3.2,13.8-6.9c4.4-4.5,7.4-9.1,9.2-13.8c1.7-4.7,2.6-9.7,2.6-15.2
		c0-5.8-1.5-11.6-4.4-17.4c-2.9-5.8-6.9-10.4-12-13.8c-4.2-2.4-9.2-3.9-14.9-4.4c-5.7-0.6-12.8-0.8-21.2-0.8h-24.6L409.2,99.8
		L409.2,99.8z"/>
	<path class="st0" d="M670.2,156.1c-2,1.4-4.6,3-7.7,4.8c-3.1,1.8-6.8,3.5-11,5.1s-8.9,3-14.1,4.1c-5.2,1.1-10.8,1.7-16.9,1.7
		c-12.8,0-24.4-2.2-34.8-6.6c-10.4-4.4-19.2-10.3-26.5-17.7c-7.3-7.4-12.9-16-16.9-25.8s-6-20.1-6-30.8c0-11.7,2.2-22.5,6.5-32.4
		c4.4-9.9,10.4-18.4,18-25.6c7.6-7.2,16.5-12.8,26.6-16.8s21-6,32.6-6c11.5,0,22.3,2,32.5,6s19,9.6,26.6,16.8s13.5,15.7,17.9,25.6
		c4.4,9.9,6.5,20.7,6.5,32.4c0,8.5-1.1,16.1-3.2,22.8c-2.1,6.7-4.6,12.5-7.5,17.5c-2.9,4.9-6,9.2-9.2,12.7s-6,6.4-8.3,8.5
		L670.2,156.1z M557.4,120.1v-0.2c4.4,8.6,9.4,15.5,15.3,20.5c5.8,5.1,11.7,9,17.7,11.6c6,2.7,11.7,4.4,17.1,5.2
		c5.4,0.8,9.9,1.2,13.4,1.2c4.4,0,8.6-0.4,12.6-1.2c4.1-0.8,7.8-1.8,11.2-3.1c3.4-1.3,6.5-2.7,9.3-4.2c2.8-1.6,5.1-3,7-4.4
		c0.3-0.1,0.9-0.5,2-1.1c1-0.6,1.7-1.1,2.2-1.7c8-6.9,14-14.8,18-23.6c4-8.8,6-18.2,6-28.3c0-9.7-1.8-18.7-5.4-26.9
		c-3.6-8.2-8.6-15.3-14.8-21.4c-6.2-6.1-13.5-10.8-21.9-14.2s-17.3-5.1-26.7-5.1c-9.6,0-18.6,1.7-27,5.1c-8.4,3.4-15.8,8.1-22,14.2
		c-6.2,6.1-11.2,13.2-14.7,21.4c-3.6,8.2-5.3,17.1-5.3,26.9c0,5.9,0.4,10.7,1.3,14.4c0.9,3.7,1.8,6.7,2.8,9.1l-0.2-0.2L557.4,120.1z
		 M626,160.5c-1.7,5.5-2.1,9.1-1,10.7s2.9,2.3,5.3,1.9c2.5-0.4,5.2-1.1,8.3-2.3c3.1-1.2,5.7-1.9,8.1-2c9-0.1,19.4,3.5,31.2,11v15.9
		c-7-4.5-12.8-7.8-17.5-9.8s-9-3.1-12.7-3.3c-4.4,0.4-9,1.1-13.9,1.9s-9.3,1-13.2,0.3c-3.9-0.6-6.7-2.3-8.6-5.1
		c-1.9-2.8-2-7.5-0.4-14.3L626,160.5z"/>
	<path class="st0" d="M845.7,112.9c0,3.5-0.1,7.4-0.3,11.7c-0.2,4.3-1,8.6-2.3,13s-3.3,8.7-6.1,12.9c-2.8,4.2-6.6,8-11.5,11.4
		c-4.5,2.8-9.4,5.2-14.6,7s-10.7,2.8-16.3,2.8c-5.7,0-11-0.9-16.1-2.8c-5.1-1.8-9.9-4.2-14.4-7c-5.1-3.4-9-7.2-11.7-11.4
		c-2.7-4.2-4.7-8.5-6-12.9s-2.1-8.7-2.3-13c-0.2-4.3-0.3-8.2-0.3-11.7V12.6h14.4v100.3c0,3.5,0,6.7,0.1,9.6s0.4,5.6,1,8.3
		c0.6,2.6,1.5,5.2,2.6,7.7c1.2,2.5,2.8,5.2,5,7.8c2.9,3.8,6.9,6.8,12.1,8.9c5.2,2.1,10.5,3.2,16,3.2c5.2,0,10.4-1.1,15.5-3.2
		s9.1-5.1,12-8.9c2.2-2.7,3.8-5.3,5-7.8s2-5.1,2.6-7.7s0.9-5.4,1-8.3s0.1-6.1,0.1-9.6V12.6h14.6L845.7,112.9L845.7,112.9z"/>
	<path class="st0" d="M886.8,169.2V12.6H979v13.5h-77.6v57.6h39.9V97h-39.9v58.6H979v13.5h-92.2V169.2z"/>
	<path class="st0" d="M1298.1,169.2l-9.2-21.2c-17.4-0.1-34.4-0.2-50.9-0.3c-16.5-0.1-33.4-0.1-50.9-0.1c-1.6,3.4-3.3,7-5,10.9
		s-3.3,7.4-4.6,10.7H1162l69.1-156.7h13.3l69.1,156.7H1298.1z M1237.7,32.5c-3.8,8.8-7.5,17.3-11.2,25.6s-7.4,16.6-11,24.9
		s-7.3,16.6-10.9,25.1s-7.4,17.1-11.3,26c7.7,0,15.2,0,22.6,0.1c7.3,0.1,14.6,0.1,21.8,0.2c7.2,0.1,14.5,0.1,21.9,0.2
		s15.1,0.1,23.1,0.1L1237.7,32.5z"/>
	<path class="st0" d="M1116.2,112.9c-11.3-10.9-25.3-19.1-41.7-24.3c-9.9-4.5-17.7-9.5-23.2-14.8c-5.8-5.7-8.7-12.3-8.7-20.3
		c0-8.1,2.8-14.7,8.7-20.4c5.9-5.6,12.7-8.4,21-8.4s15.1,2.7,21,8.3c3.2,3.2,5.6,6.7,7,10.4l0.7,1.9l14-5.4l-0.6-1.8
		c-1.9-5.7-5.3-11-10.2-15.5c-8.8-8.5-19.6-12.8-31.9-12.8c-12.4,0-23.2,4.3-31.9,12.9c-8.8,8.5-13.2,18.9-13.2,30.8
		c0,12.1,4.4,22.6,13.2,31.1c8.6,8.3,20.4,15,35,19.7c11.9,4.7,22,11.2,30.2,19.1c9.1,8.9,13.8,19.7,13.8,32.2
		c0,12.6-4.6,23.4-13.8,32.3c-9.1,8.9-20.4,13.4-33.3,13.4s-24-4.5-33.2-13.4c-7.8-7.6-12.4-16.6-13.5-26.8l-0.3-2.5l-14.7,5.2
		l0.3,1.6c1.9,12.5,7.8,23.6,17.5,33c12.1,11.9,26.9,17.9,44,17.9s31.9-6,44-17.7c12.1-11.8,18.3-26.2,18.3-42.9
		C1134.5,139,1128.3,124.6,1116.2,112.9z"/>
	<circle class="st1" cx="1072.6" cy="154.2" r="23.6"/>
</g>
</svg>
